<svg width="394" height="80" viewBox="0 0 394 80" fill="none" xmlns="http://www.w3.org/2000/svg">
<g clip-path="url(#clip0_207_5)">
<path d="M116.875 69.2852V63.4844H126.875V69.2852H116.875ZM131.836 77V48.2305H139.219V70.7695H153.145V77H131.836ZM161.035 62.6445C161.035 65.5742 161.628 67.8203 162.812 69.3828C164.01 70.9453 165.723 71.7266 167.949 71.7266C170.189 71.7266 171.908 70.9453 173.105 69.3828C174.316 67.8203 174.922 65.5742 174.922 62.6445C174.922 59.7279 174.316 57.4883 173.105 55.9258C171.908 54.3503 170.189 53.5625 167.949 53.5625C165.723 53.5625 164.01 54.3438 162.812 55.9062C161.628 57.4688 161.035 59.7148 161.035 62.6445ZM153.555 62.6445C153.555 57.9701 154.844 54.2786 157.422 51.5703C160.013 48.849 163.522 47.4883 167.949 47.4883C172.389 47.4883 175.911 48.849 178.516 51.5703C181.133 54.2917 182.441 57.9831 182.441 62.6445C182.441 67.306 181.133 70.9974 178.516 73.7188C175.911 76.4401 172.389 77.8008 167.949 77.8008C163.522 77.8008 160.013 76.4466 157.422 73.7383C154.844 71.0169 153.555 67.319 153.555 62.6445ZM194.297 60.9258H199.18C200.508 60.9258 201.484 60.6458 202.109 60.0859C202.747 59.513 203.066 58.6341 203.066 57.4492C203.066 56.3034 202.734 55.4505 202.07 54.8906C201.419 54.3177 200.43 54.0312 199.102 54.0312H194.297V60.9258ZM186.895 77V48.2305H200.059C203.392 48.2305 205.931 49.0052 207.676 50.5547C209.421 52.0911 210.293 54.3177 210.293 57.2344C210.293 60.2943 209.434 62.6445 207.715 64.2852C205.996 65.9128 203.522 66.7266 200.293 66.7266H194.297V77H186.895ZM214.473 77V48.2305H236.328V54.1289H221.836V59.207H235.078V64.9688H221.836V71.1211H236.797V77H214.473ZM239.551 77V71.2383L254.238 54.0312H240.117V48.2305H263.359V54.0312L248.672 71.2383H263.359V77H239.551ZM265.156 69.2852V63.4844H275.156V69.2852H265.156Z" fill="black"/>
<path d="M86.2852 29.2031H93.8262L90.0938 16.2539L86.2852 29.2031ZM70.8477 42L84 4.59961H96.1621L109.314 42H97.4062L96.0098 37.0488H84.1016L82.6543 42H70.8477ZM124.422 33.2656H129.982C131.827 33.2656 133.139 32.9948 133.918 32.4531C134.697 31.9115 135.086 31.0228 135.086 29.7871C135.086 28.5514 134.688 27.6712 133.893 27.1465C133.097 26.6217 131.76 26.3594 129.881 26.3594H124.422V33.2656ZM124.422 19.5293H129.373C131.032 19.5293 132.2 19.2839 132.877 18.793C133.554 18.3021 133.893 17.4727 133.893 16.3047C133.893 15.069 133.529 14.2227 132.801 13.7656C132.073 13.3086 130.389 13.0801 127.748 13.0801H124.422V19.5293ZM112.768 42V4.59961H128.104C131.404 4.59961 133.808 4.68424 135.314 4.85352C136.821 5.02279 138.116 5.30208 139.199 5.69141C141.095 6.40234 142.542 7.51107 143.541 9.01758C144.557 10.5241 145.064 12.3522 145.064 14.502C145.064 16.1947 144.684 17.6758 143.922 18.9453C143.177 20.1979 142.051 21.2305 140.545 22.043C142.525 22.7539 143.99 23.8203 144.938 25.2422C145.885 26.6641 146.359 28.5091 146.359 30.7773C146.359 32.9948 145.894 34.9245 144.963 36.5664C144.049 38.1914 142.712 39.444 140.951 40.3242C139.766 40.9336 138.412 41.3652 136.889 41.6191C135.365 41.873 132.843 42 129.322 42H112.768ZM164.184 32.5293H167.408C170.404 32.5293 172.478 31.8607 173.629 30.5234C174.797 29.1862 175.381 26.791 175.381 23.3379C175.381 19.9694 174.788 17.5827 173.604 16.1777C172.419 14.7728 170.404 14.0703 167.561 14.0703H164.184V32.5293ZM152.174 42V4.59961H166.697C170.387 4.59961 173.13 4.76888 174.924 5.10742C176.735 5.42904 178.309 5.9707 179.646 6.73242C182.236 8.25586 184.183 10.3971 185.486 13.1562C186.79 15.9154 187.441 19.3092 187.441 23.3379C187.441 27.5697 186.629 31.1328 185.004 34.0273C183.396 36.9049 181.018 39.0462 177.869 40.4512C176.65 41.0098 175.118 41.4076 173.273 41.6445C171.445 41.8815 168.508 42 164.463 42H152.174ZM192.951 42V4.59961H222.861V13.5625H204.961V18.5391H220.094V27.1211H204.961V32.9102H223.598V42H192.951ZM229.209 42V4.59961H241.219V32.0723H257.545V42H229.209ZM262.674 42V4.59961H274.912V42H262.674ZM282.225 42V4.59961H293.625L304.111 21.9922C304.433 22.4831 304.771 23.1771 305.127 24.0742C305.499 24.9714 305.889 26.0547 306.295 27.3242C306.193 26.6641 306.117 25.9362 306.066 25.1406C306.016 24.3451 305.99 23.3802 305.99 22.2461V4.59961H317.441V42H305.99L295.504 24.7344C295.182 24.2266 294.827 23.5072 294.438 22.5762C294.065 21.6452 293.684 20.5788 293.295 19.377C293.413 20.0371 293.498 20.7311 293.549 21.459C293.6 22.1699 293.625 23.1771 293.625 24.4805V42H282.225Z" fill="black"/>
</g>
<defs>
<clipPath id="clip0_207_5">
<rect width="394" height="80" fill="white"/>
</clipPath>
</defs>
</svg>
