<svg width="283" height="64" viewBox="0 0 283 64" fill="none" xmlns="http://www.w3.org/2000/svg">
<g clip-path="url(#clip0_534_2)">
<path d="M50.434 10.401H2V53.9659H50.434V10.401Z" stroke="black" stroke-width="0.512529"/>
<path d="M6.22827 31.1583V10.5291H50.3057V45.6373L46.9743 49.0968H20.7072L6.22827 31.1583Z" fill="#73D2F0" stroke="black" stroke-width="0.512529"/>
<path d="M31.2141 38.3337C37.583 38.3337 42.746 33.1707 42.746 26.8018C42.746 20.4329 37.583 15.2699 31.2141 15.2699C24.8453 15.2699 19.6823 20.4329 19.6823 26.8018C19.6823 33.1707 24.8453 38.3337 31.2141 38.3337Z" fill="#FFFAFA" stroke="black" stroke-width="0.512529"/>
<path d="M31.2141 30.1333C33.054 30.1333 34.5456 28.6418 34.5456 26.8019C34.5456 24.962 33.054 23.4705 31.2141 23.4705C29.3742 23.4705 27.8827 24.962 27.8827 26.8019C27.8827 28.6418 29.3742 30.1333 31.2141 30.1333Z" fill="#0D0D0D" stroke="black" stroke-width="0.512529"/>
<path d="M74.9813 27.7337H78.4048C80.6271 27.7337 82.1137 27.4859 82.8644 26.9904C83.6152 26.4949 83.9906 25.6165 83.9906 24.3552C83.9906 23.0789 83.6302 22.1929 82.9095 21.6974C82.1887 21.2019 80.6872 20.9542 78.4048 20.9542H74.9813V27.7337ZM64.3278 46V12.8233H77.9769C80.995 12.8233 83.3825 13.0035 85.1393 13.3638C86.9111 13.7092 88.3901 14.2723 89.5764 15.0531C91.1079 16.0891 92.2491 17.373 92.9999 18.9045C93.7507 20.4361 94.1261 22.253 94.1261 24.3552C94.1261 28.064 93.0299 30.9094 90.8377 32.8915C88.6454 34.8585 85.4846 35.842 81.3554 35.842H74.9813V46H64.3278ZM103.206 30.9995H111.877C111.772 29.483 111.352 28.3493 110.616 27.5985C109.88 26.8327 108.821 26.4498 107.44 26.4498C106.164 26.4498 105.15 26.8552 104.399 27.6661C103.664 28.4619 103.266 29.5731 103.206 30.9995ZM111.359 38.7475H120.684C120.008 41.4203 118.521 43.4474 116.224 44.8288C113.942 46.1952 110.924 46.8784 107.17 46.8784C102.965 46.8784 99.6244 45.7147 97.1469 43.3873C94.6843 41.0449 93.4531 37.8991 93.4531 33.9501C93.4531 29.8358 94.7144 26.5925 97.237 24.22C99.7596 21.8326 103.191 20.6388 107.53 20.6388C111.885 20.6388 115.293 21.9377 117.756 24.5354C120.233 27.118 121.472 30.7067 121.472 35.3015V35.8871L103.206 35.9096C103.251 37.4712 103.664 38.6799 104.444 39.5358C105.225 40.3767 106.314 40.7971 107.71 40.7971C108.656 40.7971 109.445 40.6245 110.075 40.2791C110.706 39.9187 111.134 39.4082 111.359 38.7475ZM122.713 46V21.5172H131.565V25.0984C132.706 23.672 133.975 22.6134 135.372 21.9227C136.783 21.2169 138.375 20.8641 140.146 20.8641C141.633 20.8641 142.962 21.1118 144.133 21.6073C145.304 22.1028 146.295 22.8386 147.106 23.8146C147.842 24.7005 148.36 25.7816 148.66 27.058C148.976 28.3193 149.133 30.3914 149.133 33.2744V46H139.403V33.3194C139.403 31.4575 139.155 30.1812 138.66 29.4905C138.164 28.7847 137.309 28.4319 136.092 28.4319C134.861 28.4319 133.945 28.8373 133.344 29.6481C132.744 30.459 132.443 31.6977 132.443 33.3645V46H122.713Z" fill="#244FA0"/>
<path d="M160.015 33.5897C160.015 35.5567 160.337 37.0207 160.983 37.9817C161.629 38.9277 162.612 39.4007 163.934 39.4007C165.33 39.4007 166.359 38.9352 167.019 38.0043C167.695 37.0733 168.033 35.6168 168.033 33.6347C168.033 31.8629 167.673 30.489 166.952 29.513C166.246 28.537 165.24 28.049 163.934 28.049C162.612 28.049 161.629 28.5145 160.983 29.4454C160.337 30.3614 160.015 31.7428 160.015 33.5897ZM151.929 48.6352H161.569C161.689 49.2208 161.967 49.6413 162.402 49.8965C162.853 50.1518 163.528 50.2794 164.429 50.2794C165.856 50.2794 166.817 49.9641 167.312 49.3334C167.823 48.7028 168.078 47.3139 168.078 45.1666V43.8378C167.252 44.6336 166.269 45.2342 165.127 45.6396C164.001 46.03 162.71 46.2252 161.253 46.2252C157.95 46.2252 155.3 45.0991 153.303 42.8467C151.321 40.5794 150.33 37.5688 150.33 33.8149C150.33 29.8659 151.276 26.7201 153.168 24.3777C155.075 22.0353 157.612 20.8641 160.78 20.8641C162.552 20.8641 164.091 21.1794 165.398 21.81C166.719 22.4257 167.86 23.3867 168.821 24.693V21.5172H177.448V44.108C177.448 48.3724 176.404 51.3981 174.317 53.1849C172.23 54.9718 168.709 55.8652 163.753 55.8652C160.315 55.8652 157.567 55.2345 155.51 53.9732C153.453 52.7119 152.259 50.9326 151.929 48.6352ZM179.973 46V21.5172H188.96V25.9768C189.605 24.205 190.529 22.9137 191.73 22.1028C192.946 21.277 194.56 20.8641 196.573 20.8641H197.451V30.5716C197.091 30.5416 196.745 30.519 196.415 30.504C196.085 30.474 195.769 30.459 195.469 30.459C193.502 30.459 192.053 30.9019 191.122 31.7878C190.206 32.6738 189.748 34.0627 189.748 35.9546V46H179.973ZM214.774 35.0762C213.843 35.4366 212.604 35.8195 211.058 36.2249C208.625 36.8706 207.409 37.734 207.409 38.8151C207.409 39.5058 207.649 40.0464 208.13 40.4368C208.61 40.8272 209.293 41.0224 210.179 41.0224C211.801 41.0224 212.98 40.647 213.715 39.8962C214.466 39.1454 214.842 37.9517 214.842 36.315C214.842 35.9697 214.834 35.7144 214.819 35.5492C214.819 35.369 214.804 35.2114 214.774 35.0762ZM215.675 46L215.067 43.6576C213.821 44.7537 212.477 45.5646 211.035 46.0901C209.594 46.6156 207.972 46.8784 206.17 46.8784C203.407 46.8784 201.268 46.2027 199.751 44.8513C198.249 43.4849 197.499 41.5629 197.499 39.0854C197.499 36.6679 198.242 34.881 199.729 33.7248C201.215 32.5686 204.023 31.7278 208.152 31.2022C208.678 31.1272 209.383 31.0446 210.269 30.9545C213.348 30.6241 214.887 29.8283 214.887 28.567C214.887 27.8613 214.601 27.3508 214.031 27.0354C213.475 26.7051 212.589 26.5399 211.373 26.5399C210.367 26.5399 209.594 26.7426 209.053 27.1481C208.513 27.5385 208.197 28.1466 208.107 28.9724H198.602C198.647 26.2246 199.774 24.1525 201.981 22.756C204.188 21.3446 207.431 20.6388 211.711 20.6388C213.723 20.6388 215.577 20.8265 217.274 21.2019C218.986 21.5773 220.315 22.0803 221.261 22.711C222.417 23.4918 223.228 24.3777 223.693 25.3687C224.159 26.3447 224.391 27.7487 224.391 29.5806V43.2296C224.391 43.6801 224.482 44.0855 224.662 44.4459C224.842 44.7913 225.105 45.0765 225.45 45.3018V46H215.675ZM228.201 46V27.0354H225.16V21.5172H228.201V19.9857C228.201 17.2528 228.876 15.2408 230.228 13.9494C231.594 12.6581 233.711 12.0124 236.579 12.0124H242.03V18.1388C241.91 18.1388 241.737 18.1312 241.512 18.1162C241.287 18.1012 241.121 18.0937 241.016 18.0937C239.83 18.0937 239.004 18.2964 238.539 18.7018C238.073 19.0922 237.841 19.783 237.841 20.774C237.841 20.8491 237.848 20.9692 237.863 21.1343C237.878 21.2845 237.886 21.4121 237.886 21.5172H242.03V27.0354H237.886V46H228.201ZM242.438 19.0172V12.0124H252.258V19.0172H242.438ZM242.438 46V21.5172H252.258V46H242.438ZM271.36 36.4501H281.091C280.88 39.6785 279.589 42.2236 277.217 44.0855C274.859 45.9474 271.721 46.8784 267.802 46.8784C263.462 46.8784 260.031 45.6997 257.509 43.3423C254.986 40.9848 253.725 37.779 253.725 33.7248C253.725 29.6707 254.971 26.4799 257.464 24.1525C259.956 21.81 263.372 20.6388 267.712 20.6388C271.646 20.6388 274.814 21.5623 277.217 23.4092C279.619 25.2411 280.88 27.7111 281 30.8193H271.27C271.165 29.6631 270.82 28.8073 270.234 28.2517C269.649 27.6961 268.793 27.4183 267.667 27.4183C266.255 27.4183 265.219 27.9289 264.558 28.9499C263.898 29.9559 263.567 31.5476 263.567 33.7248C263.567 35.9321 263.883 37.5463 264.513 38.5673C265.159 39.5884 266.18 40.0989 267.577 40.0989C268.703 40.0989 269.581 39.7911 270.212 39.1755C270.857 38.5598 271.24 37.6514 271.36 36.4501Z" fill="#0BA8D5"/>
<path d="M255.694 56.2278V54.466H257.546V56.2278H255.694ZM263.648 54.2107C263.558 54.9014 263.28 55.4403 262.813 55.8274C262.349 56.2111 261.742 56.403 260.991 56.403C260.18 56.403 259.528 56.1444 259.034 55.6272C258.54 55.1066 258.293 54.4193 258.293 53.565C258.293 52.6441 258.543 51.9183 259.044 51.3878C259.544 50.8572 260.225 50.592 261.086 50.592C261.833 50.592 262.434 50.7805 262.888 51.1576C263.345 51.5313 263.602 52.0501 263.658 52.7142H261.862C261.812 52.4606 261.72 52.2704 261.586 52.1436C261.453 52.0168 261.281 51.9534 261.071 51.9534C260.764 51.9534 260.53 52.0852 260.37 52.3488C260.21 52.6124 260.13 52.9995 260.13 53.51C260.13 54.0105 260.205 54.3842 260.355 54.6311C260.509 54.8747 260.74 54.9965 261.051 54.9965C261.284 54.9965 261.47 54.9314 261.606 54.8013C261.747 54.6712 261.842 54.4743 261.892 54.2107H263.648ZM265.892 53.5C265.892 53.9971 265.984 54.3792 266.167 54.6462C266.351 54.9131 266.611 55.0466 266.948 55.0466C267.289 55.0466 267.551 54.9131 267.734 54.6462C267.921 54.3759 268.014 53.9938 268.014 53.5C268.014 53.0095 267.921 52.6307 267.734 52.3638C267.551 52.0969 267.289 51.9634 266.948 51.9634C266.608 51.9634 266.346 52.0969 266.162 52.3638C265.982 52.6274 265.892 53.0061 265.892 53.5ZM264.065 53.5C264.065 52.589 264.321 51.8766 264.831 51.3628C265.342 50.8489 266.047 50.592 266.948 50.592C267.853 50.592 268.56 50.8489 269.07 51.3628C269.584 51.8766 269.841 52.589 269.841 53.5C269.841 54.4109 269.584 55.125 269.07 55.6422C268.56 56.156 267.853 56.413 266.948 56.413C266.041 56.413 265.333 56.156 264.826 55.6422C264.319 55.1283 264.065 54.4142 264.065 53.5ZM270.628 56.2278V50.7872H272.34V51.5329C272.52 51.236 272.742 51.0157 273.006 50.8723C273.273 50.7254 273.592 50.652 273.962 50.652C274.356 50.652 274.681 50.7254 274.938 50.8723C275.198 51.0157 275.395 51.236 275.529 51.5329C275.705 51.2393 275.929 51.0191 276.199 50.8723C276.473 50.7254 276.793 50.652 277.16 50.652C277.744 50.652 278.185 50.8139 278.482 51.1375C278.782 51.4612 278.932 51.9417 278.932 52.579V56.2278H277.19V53.1196C277.19 52.7058 277.13 52.4172 277.01 52.2537C276.893 52.0868 276.693 52.0034 276.409 52.0034C276.122 52.0034 275.911 52.1102 275.774 52.3238C275.637 52.5373 275.569 52.8677 275.569 53.3148V56.2278H273.992V53.1196C273.992 52.7058 273.932 52.4172 273.812 52.2537C273.695 52.0868 273.495 52.0034 273.211 52.0034C272.924 52.0034 272.712 52.1102 272.575 52.3238C272.439 52.5373 272.37 52.8677 272.37 53.3148V56.2278H270.628Z" fill="black"/>
</g>
<defs>
<clipPath id="clip0_534_2">
<rect width="283" height="64" fill="white"/>
</clipPath>
</defs>
</svg>
